<?xml version="1.0" encoding="UTF-8" standalone="no"?>
<svg width="40px" height="17px" viewBox="0 0 40 17" version="1.1" xmlns="http://www.w3.org/2000/svg" xmlns:xlink="http://www.w3.org/1999/xlink" xmlns:sketch="http://www.bohemiancoding.com/sketch/ns">
    <!-- Generator: Sketch Beta 3.1 (8603) - http://www.bohemiancoding.com/sketch -->
    <title>Rectangle 26</title>
    <desc>Created with Sketch Beta.</desc>
    <defs></defs>
    <g id="Home" stroke="none" stroke-width="1" fill="none" fill-rule="evenodd" sketch:type="MSPage">
        <g id="_output/V2/Home_web" sketch:type="MSArtboardGroup" transform="translate(-297.000000, -1104.000000)" fill="#1A2021" opacity="0.5">
            <g id="Collage" sketch:type="MSLayerGroup" transform="translate(109.000000, 808.000000)">
                <g id="btn" transform="translate(3.000000, 272.000000)" sketch:type="MSShapeGroup">
                    <path d="M222.273957,33 L185,33 L185,32 L222.317889,32 L215.190378,25.3021049 C214.995116,25.1186123 214.995116,24.821112 215.190378,24.6376194 C215.385641,24.4541269 215.702223,24.4541269 215.897485,24.6376194 L223.888654,32.1471154 L224.242207,32.4793581 L223.888654,32.8116009 L215.853553,40.3623806 C215.658291,40.5458731 215.341709,40.5458731 215.146447,40.3623806 C214.951184,40.178888 214.951184,39.8813877 215.146447,39.6978951 L222.273957,33 Z M223,32.6409967 L223,32.3177196 L223.181547,32.1471154 L223.181547,32.8116009 L223,32.6409967 Z" id="Rectangle-26"></path>
                </g>
            </g>
        </g>
    </g>
</svg>