<?xml version="1.0" encoding="UTF-8" standalone="no"?>
<svg width="40px" height="17px" viewBox="0 0 40 17" version="1.1" xmlns="http://www.w3.org/2000/svg" xmlns:xlink="http://www.w3.org/1999/xlink" xmlns:sketch="http://www.bohemiancoding.com/sketch/ns">
    <!-- Generator: Sketch Beta 3.1 (8603) - http://www.bohemiancoding.com/sketch -->
    <title>Rectangle 27</title>
    <desc>Created with Sketch Beta.</desc>
    <defs></defs>
    <g id="Home" stroke="none" stroke-width="1" fill="none" fill-rule="evenodd" sketch:type="MSPage">
        <g id="_output/V2/Home_web" sketch:type="MSArtboardGroup" transform="translate(-309.000000, -4281.000000)" fill="#FFFFFF" opacity="0.5">
            <g id="Words-2" sketch:type="MSLayerGroup" transform="translate(0.000000, 2960.000000)">
                <g id="Group-5" transform="translate(116.000000, 153.000000)" sketch:type="MSShapeGroup">
                    <g id="btn-2" transform="translate(1.000000, 1143.000000)">
                        <path d="M229.273957,34 L192,34 L192,33 L229.317889,33 L222.190378,26.3021049 C221.995116,26.1186123 221.995116,25.821112 222.190378,25.6376194 C222.385641,25.4541269 222.702223,25.4541269 222.897485,25.6376194 L230.888654,33.1471154 L231.242207,33.4793581 L230.888654,33.8116009 L222.853553,41.3623806 C222.658291,41.5458731 222.341709,41.5458731 222.146447,41.3623806 C221.951184,41.178888 221.951184,40.8813877 222.146447,40.6978951 L229.273957,34 Z M230,33.6409967 L230,33.3177196 L230.181547,33.1471154 L230.181547,33.8116009 L230,33.6409967 Z" id="Rectangle-27"></path>
                    </g>
                </g>
            </g>
        </g>
    </g>
</svg>