<?xml version="1.0" encoding="UTF-8" standalone="no"?>
<svg width="273px" height="620px" viewBox="0 0 273 620" version="1.1" xmlns="http://www.w3.org/2000/svg" xmlns:xlink="http://www.w3.org/1999/xlink" xmlns:sketch="http://www.bohemiancoding.com/sketch/ns">
    <!-- Generator: Sketch Beta 3.0.4 (8156) - http://www.bohemiancoding.com/sketch -->
    <title>formas</title>
    <desc>Created with Sketch Beta.</desc>
    <defs></defs>
    <g id="Home" stroke="none" stroke-width="1" fill="none" fill-rule="evenodd" sketch:type="MSPage">
        <g id="_output/V2/Home_web" sketch:type="MSArtboardGroup" transform="translate(-895.000000, -4879.000000)" stroke="#979797">
            <g id="formas" sketch:type="MSLayerGroup" transform="translate(896.000000, 4880.000000)">
                <rect id="Rectangle-30" sketch:type="MSShapeGroup" transform="translate(222.000000, 234.000000) rotate(-45.000000) translate(-222.000000, -234.000000) " x="186" y="198" width="72" height="72"></rect>
                <rect id="Rectangle-32" sketch:type="MSShapeGroup" x="157" y="455" width="36" height="36"></rect>
                <rect id="Rectangle-35" sketch:type="MSShapeGroup" transform="translate(25.000000, 25.000000) rotate(-45.000000) translate(-25.000000, -25.000000) " x="7" y="7" width="36" height="36"></rect>
                <path d="M14,335 L86,407 L86,335 L14,335 Z" id="Rectangle-31" sketch:type="MSShapeGroup" transform="translate(50.000000, 371.000000) rotate(-30.000000) translate(-50.000000, -371.000000) "></path>
                <path d="M180,50 L216,86 L216,50 L180,50 Z" id="Rectangle-33" sketch:type="MSShapeGroup" transform="translate(198.000000, 68.000000) rotate(-30.000000) translate(-198.000000, -68.000000) "></path>
                <path d="M178,433.816406 L214,469.816406 L214,433.816406 L178,433.816406 Z" id="Rectangle-34" sketch:type="MSShapeGroup" transform="translate(196.000000, 451.816406) rotate(-180.000000) translate(-196.000000, -451.816406) "></path>
                <circle id="Oval-9" sketch:type="MSShapeGroup" cx="86" cy="162" r="36"></circle>
                <circle id="Oval-10" sketch:type="MSShapeGroup" cx="198" cy="264" r="18"></circle>
                <circle id="Oval-11" sketch:type="MSShapeGroup" cx="90" cy="602" r="18"></circle>
            </g>
        </g>
    </g>
</svg>