<?xml version="1.0" encoding="UTF-8" standalone="no"?>
<svg width="273px" height="620px" viewBox="0 0 273 620" version="1.1" xmlns="http://www.w3.org/2000/svg" xmlns:xlink="http://www.w3.org/1999/xlink" xmlns:sketch="http://www.bohemiancoding.com/sketch/ns">
    <!-- Generator: Sketch Beta 3.1 (8603) - http://www.bohemiancoding.com/sketch -->
    <title>Slice 2</title>
    <desc>Created with Sketch Beta.</desc>
    <defs></defs>
    <g id="Page-1" stroke="none" stroke-width="1" fill="none" fill-rule="evenodd" sketch:type="MSPage">
        <g id="shapes" sketch:type="MSLayerGroup">
            <g id="Home" sketch:type="MSShapeGroup">
                <g id="_output/V2/Home_web">
                    <g id="formas">
                        <rect id="Rectangle-30" stroke="#979797" transform="translate(222.000000, 234.000000) rotate(-45.000000) translate(-222.000000, -234.000000) " x="186" y="198" width="72" height="72"></rect>
                        <rect id="Rectangle-32" stroke="#9B9B9B" x="156" y="456" width="36" height="36"></rect>
                        <rect id="Rectangle-35" stroke="#979797" transform="translate(25.000000, 25.000000) rotate(-45.000000) translate(-25.000000, -25.000000) " x="7" y="7" width="36" height="36"></rect>
                        <path d="M14,335 L86,407 L86,335 L14,335 L14,335 Z" id="Rectangle-31" stroke="#979797" transform="translate(50.000000, 371.000000) rotate(-30.000000) translate(-50.000000, -371.000000) "></path>
                        <path d="M180,50 L216,86 L216,50 L180,50 L180,50 Z" id="Rectangle-33" stroke="#979797" transform="translate(198.000000, 68.000000) rotate(-30.000000) translate(-198.000000, -68.000000) "></path>
                        <path d="M178,434 L214,470 L214,434 L178,434 L178,434 Z" id="Rectangle-34" stroke="#9C9C9C" transform="translate(196.000000, 452.000000) rotate(180.000000) translate(-196.000000, -452.000000) "></path>
                        <circle id="Oval-9" stroke="#979797" cx="86" cy="162" r="36"></circle>
                        <circle id="Oval-10" stroke="#979797" cx="198" cy="264" r="18"></circle>
                        <circle id="Oval-11" stroke="#979797" cx="90" cy="602" r="18"></circle>
                    </g>
                </g>
            </g>
        </g>
    </g>
</svg>