<?xml version="1.0" encoding="UTF-8" standalone="no"?>
<svg width="30px" height="24px" viewBox="0 0 30 24" version="1.1" xmlns="http://www.w3.org/2000/svg" xmlns:xlink="http://www.w3.org/1999/xlink" xmlns:sketch="http://www.bohemiancoding.com/sketch/ns">
    <!-- Generator: Sketch Beta 3.0.4 (8156) - http://www.bohemiancoding.com/sketch -->
    <title>Imported Layers</title>
    <desc>Created with Sketch Beta.</desc>
    <defs></defs>
    <g id="Home" stroke="none" stroke-width="1" fill="none" fill-rule="evenodd" sketch:type="MSPage">
        <g id="_output/V2/Home_web" sketch:type="MSArtboardGroup" transform="translate(-164.000000, -5680.000000)" fill="#1A2021">
            <g id="Contact" sketch:type="MSLayerGroup" transform="translate(-23.000000, 4576.000000)">
                <g id="Form" transform="translate(0.000000, 352.000000)" sketch:type="MSShapeGroup">
                    <g id="campo-4" transform="translate(0.000000, 96.000000)">
                        <g id="social" transform="translate(0.000000, 615.000000)">
                            <g id="icons" transform="translate(135.000000, 41.000000)">
                                <path d="M81.539,2.841 C80.453,3.323 79.285,3.648 78.059,3.795 C79.31,3.045 80.271,1.857 80.723,0.443 C79.552,1.138 78.255,1.642 76.875,1.913 C75.77,0.735 74.196,0 72.453,0 C69.107,0 66.394,2.713 66.394,6.059 C66.394,6.533 66.448,6.996 66.551,7.44 C61.516,7.186 57.051,4.774 54.063,1.109 C53.542,2.004 53.243,3.045 53.243,4.155 C53.243,6.257 54.102,8.111 55.728,9.198 C54.734,9.166 53.773,8.894 52.773,8.44 L52.773,8.517 C52.773,11.452 55.072,13.9 57.843,14.457 C57.334,14.596 56.905,14.67 56.352,14.67 C55.962,14.67 55.634,14.632 55.265,14.561 C56.036,16.968 58.299,18.72 60.951,18.769 C58.877,20.394 56.278,21.362 53.439,21.362 C52.95,21.362 52.475,21.334 52,21.277 C54.682,22.997 57.87,24 61.291,24 C72.436,24 78.532,14.768 78.532,6.761 C78.532,6.498 78.526,6.237 78.514,5.977 C79.699,5.123 80.727,4.056 81.539,2.841" id="Imported-Layers"></path>
                            </g>
                        </g>
                    </g>
                </g>
            </g>
        </g>
    </g>
</svg>
