<svg xmlns="http://www.w3.org/2000/svg" xmlns:xlink="http://www.w3.org/1999/xlink" width="273" height="736" viewBox="0 0 273 736"><svg width="40" height="17" viewBox="0 0 40 17" id="arrow-dark" y="0"><title>Rectangle 26</title><desc>Created with Sketch Beta.</desc><path d="M37.274 9H0V8h37.318L30.19 1.302c-.195-.183-.195-.48 0-.664.196-.184.512-.184.707 0l7.992 7.51.352.33-.353.334-8.036 7.55c-.196.184-.512.184-.708 0-.195-.183-.195-.48 0-.664L37.274 9zM408 56.64v-.322l.182-.17v.664l-.182-.17z" fill="#1A2021" opacity=".5"/></svg>
<svg width="40" height="17" viewBox="0 0 40 17" id="arrow-light" y="17"><title>Rectangle 27</title><desc>Created with Sketch Beta.</desc><path d="M37.274 9H0V8h37.318L30.19 1.302c-.195-.183-.195-.48 0-.664.196-.184.512-.184.707 0l7.992 7.51.352.33-.353.334-8.036 7.55c-.196.184-.512.184-.708 0-.195-.183-.195-.48 0-.664L37.274 9zM422 58.64v-.322l.182-.17v.664l-.182-.17z" fill="#fff" opacity=".5"/></svg>
<svg width="16" height="10" viewBox="0 0 16 10" id="arrow-select" y="34"><title>Rectangle 64</title><desc>Created with Sketch Beta.</desc><path d="M.93 1L8 8.07 15.07 1" stroke="#1B1F26" stroke-opacity=".7" stroke-width="2" stroke-linecap="round" stroke-linejoin="round" fill="none"/></svg>
<svg width="12" height="24" viewBox="0 0 12 24" id="facebook" y="44"><title>Imported Layers</title><desc>Created with Sketch Beta.</desc><path d="M7 5.524v-.392c0-.964.682-1.31 1.647-1.31.964 0 1.908.302 1.908.302L11.13.446S9.787 0 6.658 0c-1.92 0-3.04.73-3.853 1.805C2.032 2.822 2 4.462 2 5.525v2.25H0v4h2v12h5v-12h3.318l.274-4H7v-2.25" fill="#1A2021"/></svg>
<svg width="24" height="24" viewBox="0 0 24 24" id="instagram" y="68"><title>Fill 1</title><desc>Created with Sketch Beta.</desc><path d="M21 10h-1.89c.155 0 .245 1.083.245 1.72 0 4.07-3.3 7.305-7.375 7.305-4.07 0-7.37-3.205-7.37-7.273 0-.638.09-1.752.24-1.752H3v9.887c0 .506.177 1.113.688 1.113h16.584c.512 0 .728-.607.728-1.113V10zm0-6.702C21 2.79 20.784 2 20.272 2h-2.76c-.51 0-.512.79-.512 1.298v2.765c0 .51 0 .937.512.937h2.76c.512 0 .728-.426.728-.937V3.298zm-9.02 3.688c-2.545 0-4.608 2.063-4.608 4.61 0 2.54 2.063 4.606 4.608 4.606 2.546 0 4.61-2.067 4.61-4.607 0-2.546-2.064-4.61-4.61-4.61zM21 24H2.765C1.24 24 0 22.334 0 20.806V2.38C0 .85 1.24 0 2.765 0h18.43C22.726 0 24 .85 24 2.38v18.426C24 22.334 22.725 24 21.196 24H21z" fill="#1A2021"/></svg>
<svg width="273" height="620" viewBox="0 0 273 620" id="shapes" y="92"><title>formas</title><desc>Created with Sketch Beta.</desc><g transform="translate(-896 -4880) translate(896 4880)" stroke="#979797" fill="none"><path d="M171.096 234L222 183.096 272.904 234 222 284.904z"/><path d="M157 455h36v36h-36z"/><path d="M-.452 25L25-.452 50.452 25 25 50.452z"/><path d="M.824 357.824l98.352 26.352-36-62.352-62.352 36z"/><path d="M173.412 61.412l49.176 13.176-18-31.176-31.176 18z"/><path d="M214 469.816l-36-36v36h36z"/><circle cx="86" cy="162" r="36"/><circle cx="198" cy="264" r="18"/><circle cx="90" cy="602" r="18"/></g></svg>
<svg width="30" height="24" viewBox="0 0 30 24" id="twitter" y="712"><title>Imported Layers</title><desc>Created with Sketch Beta.</desc><path d="M29.54 2.84c-1.087.483-2.255.808-3.48.955 1.25-.75 2.21-1.938 2.663-3.352-1.17.695-2.468 1.2-3.848 1.47C23.77.735 22.195 0 20.453 0c-3.346 0-6.06 2.713-6.06 6.06 0 .473.055.936.158 1.38-5.034-.254-9.5-2.666-12.487-6.33-.52.894-.82 1.935-.82 3.045 0 2.102.86 3.956 2.485 5.043-.994-.032-1.955-.304-2.955-.758v.077c0 2.935 2.3 5.383 5.07 5.94-.51.14-.938.213-1.49.213-.39 0-.72-.038-1.088-.11.77 2.408 3.034 4.16 5.686 4.21-2.073 1.624-4.672 2.592-7.51 2.592-.49 0-.965-.028-1.44-.085C2.682 22.997 5.87 24 9.29 24c11.146 0 17.242-9.232 17.242-17.24 0-.262-.006-.523-.018-.783 1.185-.854 2.213-1.92 3.025-3.136" fill="#1A2021"/></svg>
</svg>